<svg xmlns="http://www.w3.org/2000/svg" width="1200" height="520" viewBox="0 0 1200 520">
  <rect width="1200" height="520" fill="#0A0A0F"/>
  <rect x="1" y="1" width="1198" height="518" rx="16" fill="none" stroke="rgba(255,255,255,0.08)"/>
  <line x1="94" y1="246.59066367175808" x2="94" y2="347.5906636717581" stroke="#2DD4BF" stroke-width="3" opacity="0.7"/><rect x="80" y="270.5906636717581" width="28" height="53" rx="4" fill="#2DD4BF" opacity="0.85"/><line x1="170" y1="170.01687836732646" x2="170" y2="284.01687836732646" stroke="#FFB4AB" stroke-width="3" opacity="0.7"/><rect x="156" y="194.01687836732646" width="28" height="66" rx="4" fill="#FFB4AB" opacity="0.85"/><line x1="246" y1="113.45021205484741" x2="246" y2="240.4502120548474" stroke="#FFB4AB" stroke-width="3" opacity="0.7"/><rect x="232" y="137.4502120548474" width="28" height="79" rx="4" fill="#FFB4AB" opacity="0.85"/><line x1="322" y1="107.26043269017919" x2="322" y2="247.2604326901792" stroke="#FFB4AB" stroke-width="3" opacity="0.7"/><rect x="308" y="131.2604326901792" width="28" height="92" rx="4" fill="#FFB4AB" opacity="0.85"/><line x1="398" y1="151.2593645986854" x2="398" y2="304.2593645986854" stroke="#2DD4BF" stroke-width="3" opacity="0.7"/><rect x="384" y="175.2593645986854" width="28" height="105" rx="4" fill="#2DD4BF" opacity="0.85"/><line x1="474" y1="244.81503331439768" x2="474" y2="350.8150333143977" stroke="#2DD4BF" stroke-width="3" opacity="0.7"/><rect x="460" y="268.8150333143977" width="28" height="58" rx="4" fill="#2DD4BF" opacity="0.85"/><line x1="550" y1="285.43261024996946" x2="550" y2="404.43261024996946" stroke="#2DD4BF" stroke-width="3" opacity="0.7"/><rect x="536" y="309.43261024996946" width="28" height="71" rx="4" fill="#2DD4BF" opacity="0.85"/><line x1="626" y1="274.5312054926453" x2="626" y2="406.5312054926453" stroke="#FFB4AB" stroke-width="3" opacity="0.7"/><rect x="612" y="298.5312054926453" width="28" height="84" rx="4" fill="#FFB4AB" opacity="0.85"/><line x1="702" y1="214.7806521071132" x2="702" y2="359.7806521071132" stroke="#FFB4AB" stroke-width="3" opacity="0.7"/><rect x="688" y="238.7806521071132" width="28" height="97" rx="4" fill="#FFB4AB" opacity="0.85"/><line x1="778" y1="168.48202122413804" x2="778" y2="266.48202122413807" stroke="#FFB4AB" stroke-width="3" opacity="0.7"/><rect x="764" y="192.48202122413804" width="28" height="50" rx="4" fill="#FFB4AB" opacity="0.85"/><line x1="854" y1="117.97422573083989" x2="854" y2="228.9742257308399" stroke="#2DD4BF" stroke-width="3" opacity="0.7"/><rect x="840" y="141.9742257308399" width="28" height="63" rx="4" fill="#2DD4BF" opacity="0.85"/><line x1="930" y1="119.95180384629768" x2="930" y2="243.95180384629768" stroke="#2DD4BF" stroke-width="3" opacity="0.7"/><rect x="916" y="143.95180384629768" width="28" height="76" rx="4" fill="#2DD4BF" opacity="0.85"/><line x1="1006" y1="169.27237044370412" x2="1006" y2="306.2723704437041" stroke="#2DD4BF" stroke-width="3" opacity="0.7"/><rect x="992" y="193.27237044370412" width="28" height="89" rx="4" fill="#2DD4BF" opacity="0.85"/><line x1="1082" y1="232.07591886419266" x2="1082" y2="382.07591886419266" stroke="#FFB4AB" stroke-width="3" opacity="0.7"/><rect x="1068" y="256.07591886419266" width="28" height="102" rx="4" fill="#FFB4AB" opacity="0.85"/>
  <rect x="0" y="400" width="1200" height="120" fill="#050507" opacity="0.85"/>
  <text x="48" y="452" font-family="Menlo, monospace" font-size="26" fill="#E4E1ED">Daily Bias</text>
  <text x="48" y="486" font-family="Menlo, monospace" font-size="16" fill="#908F9E">Video lesson poster — NotebookLM video slots in later</text>
  <text x="1152" y="452" text-anchor="end" font-family="Menlo, monospace" font-size="14" fill="#FFB955">SIMULATED DATA · EDUCATION ONLY</text>
</svg>
