<svg xmlns="http://www.w3.org/2000/svg" width="1200" height="520" viewBox="0 0 1200 520">
  <rect width="1200" height="520" fill="#0A0A0F"/>
  <rect x="1" y="1" width="1198" height="518" rx="16" fill="none" stroke="rgba(255,255,255,0.08)"/>
  <line x1="94" y1="128.88777542228647" x2="94" y2="254.88777542228647" stroke="#2DD4BF" stroke-width="3" opacity="0.7"/><rect x="80" y="152.88777542228647" width="28" height="78" rx="4" fill="#2DD4BF" opacity="0.85"/><line x1="170" y1="100.84518520477434" x2="170" y2="239.84518520477434" stroke="#2DD4BF" stroke-width="3" opacity="0.7"/><rect x="156" y="124.84518520477434" width="28" height="91" rx="4" fill="#2DD4BF" opacity="0.85"/><line x1="246" y1="127.18600259149105" x2="246" y2="279.18600259149105" stroke="#2DD4BF" stroke-width="3" opacity="0.7"/><rect x="232" y="151.18600259149105" width="28" height="104" rx="4" fill="#2DD4BF" opacity="0.85"/><line x1="322" y1="217.98942843654442" x2="322" y2="322.9894284365444" stroke="#FFB4AB" stroke-width="3" opacity="0.7"/><rect x="308" y="241.98942843654442" width="28" height="57" rx="4" fill="#FFB4AB" opacity="0.85"/><line x1="398" y1="272.4301077464238" x2="398" y2="390.4301077464238" stroke="#FFB4AB" stroke-width="3" opacity="0.7"/><rect x="384" y="296.4301077464238" width="28" height="70" rx="4" fill="#FFB4AB" opacity="0.85"/><line x1="474" y1="283.5422421961043" x2="474" y2="414.5422421961043" stroke="#FFB4AB" stroke-width="3" opacity="0.7"/><rect x="460" y="307.5422421961043" width="28" height="83" rx="4" fill="#FFB4AB" opacity="0.85"/><line x1="550" y1="240.64254736025856" x2="550" y2="384.64254736025856" stroke="#2DD4BF" stroke-width="3" opacity="0.7"/><rect x="536" y="264.64254736025856" width="28" height="96" rx="4" fill="#2DD4BF" opacity="0.85"/><line x1="626" y1="165.81058968993167" x2="626" y2="322.8105896899317" stroke="#2DD4BF" stroke-width="3" opacity="0.7"/><rect x="612" y="189.81058968993167" width="28" height="109" rx="4" fill="#2DD4BF" opacity="0.85"/><line x1="702" y1="130.49561778229116" x2="702" y2="240.49561778229116" stroke="#2DD4BF" stroke-width="3" opacity="0.7"/><rect x="688" y="154.49561778229116" width="28" height="62" rx="4" fill="#2DD4BF" opacity="0.85"/><line x1="778" y1="110.37400437638144" x2="778" y2="233.37400437638144" stroke="#FFB4AB" stroke-width="3" opacity="0.7"/><rect x="764" y="134.37400437638144" width="28" height="75" rx="4" fill="#FFB4AB" opacity="0.85"/><line x1="854" y1="143.70843737996086" x2="854" y2="279.70843737996086" stroke="#FFB4AB" stroke-width="3" opacity="0.7"/><rect x="840" y="167.70843737996086" width="28" height="88" rx="4" fill="#FFB4AB" opacity="0.85"/><line x1="930" y1="206.33588425913848" x2="930" y2="355.3358842591385" stroke="#FFB4AB" stroke-width="3" opacity="0.7"/><rect x="916" y="230.33588425913848" width="28" height="101" rx="4" fill="#FFB4AB" opacity="0.85"/><line x1="1006" y1="286.3245633370847" x2="1006" y2="388.3245633370847" stroke="#FFB4AB" stroke-width="3" opacity="0.7"/><rect x="992" y="310.3245633370847" width="28" height="54" rx="4" fill="#FFB4AB" opacity="0.85"/><line x1="1082" y1="289.40919988943494" x2="1082" y2="404.40919988943494" stroke="#2DD4BF" stroke-width="3" opacity="0.7"/><rect x="1068" y="313.40919988943494" width="28" height="67" rx="4" fill="#2DD4BF" opacity="0.85"/>
  <rect x="0" y="400" width="1200" height="120" fill="#050507" opacity="0.85"/>
  <text x="48" y="452" font-family="Menlo, monospace" font-size="26" fill="#E4E1ED">Reversal Patterns</text>
  <text x="48" y="486" font-family="Menlo, monospace" font-size="16" fill="#908F9E">Placeholder figure — final artwork lands with author copy</text>
  <text x="1152" y="452" text-anchor="end" font-family="Menlo, monospace" font-size="14" fill="#FFB955">SIMULATED DATA · EDUCATION ONLY</text>
</svg>
