<svg xmlns="http://www.w3.org/2000/svg" width="1200" height="520" viewBox="0 0 1200 520">
  <rect width="1200" height="520" fill="#0A0A0F"/>
  <rect x="1" y="1" width="1198" height="518" rx="16" fill="none" stroke="rgba(255,255,255,0.08)"/>
  <line x1="94" y1="272.0422421961043" x2="94" y2="426.0422421961043" stroke="#2DD4BF" stroke-width="3" opacity="0.7"/><rect x="80" y="296.0422421961043" width="28" height="106" rx="4" fill="#2DD4BF" opacity="0.85"/><line x1="170" y1="259.14254736025856" x2="170" y2="366.14254736025856" stroke="#2DD4BF" stroke-width="3" opacity="0.7"/><rect x="156" y="283.14254736025856" width="28" height="59" rx="4" fill="#2DD4BF" opacity="0.85"/><line x1="246" y1="184.31058968993182" x2="246" y2="304.3105896899318" stroke="#2DD4BF" stroke-width="3" opacity="0.7"/><rect x="232" y="208.31058968993182" width="28" height="72" rx="4" fill="#2DD4BF" opacity="0.85"/><line x1="322" y1="118.99561778229116" x2="322" y2="251.99561778229116" stroke="#FFB4AB" stroke-width="3" opacity="0.7"/><rect x="308" y="142.99561778229116" width="28" height="85" rx="4" fill="#FFB4AB" opacity="0.85"/><line x1="398" y1="98.87400437638144" x2="398" y2="244.87400437638144" stroke="#FFB4AB" stroke-width="3" opacity="0.7"/><rect x="384" y="122.87400437638144" width="28" height="98" rx="4" fill="#FFB4AB" opacity="0.85"/><line x1="474" y1="162.20843737996086" x2="474" y2="261.20843737996086" stroke="#FFB4AB" stroke-width="3" opacity="0.7"/><rect x="460" y="186.20843737996086" width="28" height="51" rx="4" fill="#FFB4AB" opacity="0.85"/><line x1="550" y1="224.83588425913848" x2="550" y2="336.8358842591385" stroke="#2DD4BF" stroke-width="3" opacity="0.7"/><rect x="536" y="248.83588425913848" width="28" height="64" rx="4" fill="#2DD4BF" opacity="0.85"/><line x1="626" y1="274.8245633370847" x2="626" y2="399.8245633370847" stroke="#2DD4BF" stroke-width="3" opacity="0.7"/><rect x="612" y="298.8245633370847" width="28" height="77" rx="4" fill="#2DD4BF" opacity="0.85"/><line x1="702" y1="277.90919988943494" x2="702" y2="415.90919988943494" stroke="#2DD4BF" stroke-width="3" opacity="0.7"/><rect x="688" y="301.90919988943494" width="28" height="90" rx="4" fill="#2DD4BF" opacity="0.85"/><line x1="778" y1="228.27588199684197" x2="778" y2="379.275881996842" stroke="#FFB4AB" stroke-width="3" opacity="0.7"/><rect x="764" y="252.27588199684197" width="28" height="103" rx="4" fill="#FFB4AB" opacity="0.85"/><line x1="854" y1="182.0887015001441" x2="854" y2="286.0887015001441" stroke="#FFB4AB" stroke-width="3" opacity="0.7"/><rect x="840" y="206.0887015001441" width="28" height="56" rx="4" fill="#FFB4AB" opacity="0.85"/><line x1="930" y1="121.61896697766457" x2="930" y2="238.61896697766457" stroke="#FFB4AB" stroke-width="3" opacity="0.7"/><rect x="916" y="145.61896697766457" width="28" height="69" rx="4" fill="#FFB4AB" opacity="0.85"/><line x1="1006" y1="109.60399518736884" x2="1006" y2="239.60399518736884" stroke="#2DD4BF" stroke-width="3" opacity="0.7"/><rect x="992" y="133.60399518736884" width="28" height="82" rx="4" fill="#2DD4BF" opacity="0.85"/><line x1="1082" y1="149.3890940135293" x2="1082" y2="292.3890940135293" stroke="#2DD4BF" stroke-width="3" opacity="0.7"/><rect x="1068" y="173.3890940135293" width="28" height="95" rx="4" fill="#2DD4BF" opacity="0.85"/>
  <rect x="0" y="400" width="1200" height="120" fill="#050507" opacity="0.85"/>
  <text x="48" y="452" font-family="Menlo, monospace" font-size="26" fill="#E4E1ED">Weekly Profiles</text>
  <text x="48" y="486" font-family="Menlo, monospace" font-size="16" fill="#908F9E">Placeholder figure — final artwork lands with author copy</text>
  <text x="1152" y="452" text-anchor="end" font-family="Menlo, monospace" font-size="14" fill="#FFB955">SIMULATED DATA · EDUCATION ONLY</text>
</svg>
